<svg width="141" height="62" viewBox="0 0 141 62" fill="none" xmlns="http://www.w3.org/2000/svg">
<path d="M12.3819 48.3509C10.2097 48.3509 8.08752 48.0668 6.01551 47.4987C3.9435 46.9306 2.28924 46.2121 1.05271 45.3431L3.45892 40.5809C4.66202 41.3829 6.09906 42.0346 7.77004 42.5359C9.47443 43.0038 11.1454 43.2377 12.783 43.2377C16.526 43.2377 18.3974 42.2518 18.3974 40.2801C18.3974 39.3443 17.9129 38.6927 16.9437 38.325C16.008 37.9574 14.4874 37.6065 12.3819 37.2723C10.1762 36.9381 8.37159 36.5538 6.96797 36.1194C5.59777 35.6849 4.39467 34.933 3.35866 33.8635C2.35608 32.7607 1.85478 31.2401 1.85478 29.3018C1.85478 26.7619 2.9075 24.74 5.01293 23.2361C7.15178 21.6988 10.0259 20.9302 13.6352 20.9302C15.4732 20.9302 17.3113 21.1474 19.1494 21.5819C20.9875 21.9829 22.4913 22.5343 23.661 23.2361L21.2548 27.9984C18.9823 26.6616 16.4257 25.9932 13.585 25.9932C11.747 25.9932 10.3433 26.2773 9.37418 26.8454C8.43843 27.3802 7.97056 28.0987 7.97056 29.001C7.97056 30.0036 8.47185 30.7221 9.47443 31.1566C10.5104 31.5576 12.0979 31.9419 14.2367 32.3095C16.3756 32.6437 18.1301 33.0281 19.5003 33.4625C20.8705 33.897 22.0402 34.6322 23.0093 35.6682C24.0119 36.7042 24.5132 38.1747 24.5132 40.0796C24.5132 42.586 23.4271 44.5912 21.2548 46.0951C19.0825 47.599 16.1249 48.3509 12.3819 48.3509ZM45.0987 20.9302C48.4741 20.9302 51.1811 21.9161 53.2197 23.8878C55.2583 25.8596 56.2776 28.7838 56.2776 32.6604V48H50.0114V33.4625C50.0114 31.1231 49.46 29.3686 48.3571 28.1989C47.2543 26.9958 45.6836 26.3943 43.645 26.3943C41.339 26.3943 39.5177 27.0961 38.1809 28.4997C36.8441 29.8699 36.1757 31.8584 36.1757 34.4651V48H29.9096V21.231H35.8749V24.6899C36.9109 23.4534 38.2143 22.5176 39.785 21.8826C41.3557 21.2477 43.127 20.9302 45.0987 20.9302ZM64.2266 21.231H70.4927V48H64.2266V21.231ZM67.3847 16.8196C66.2485 16.8196 65.296 16.4687 64.5274 15.7669C63.7587 15.0316 63.3744 14.1293 63.3744 13.0599C63.3744 11.9905 63.7587 11.1048 64.5274 10.403C65.296 9.66781 66.2485 9.3002 67.3847 9.3002C68.521 9.3002 69.4734 9.6511 70.2421 10.3529C71.0107 11.0213 71.3951 11.8735 71.3951 12.9095C71.3951 14.0123 71.0107 14.9481 70.2421 15.7167C69.5069 16.452 68.5544 16.8196 67.3847 16.8196ZM93.5553 20.9302C96.1621 20.9302 98.4847 21.4983 100.523 22.6346C102.595 23.7708 104.216 25.375 105.386 27.447C106.556 29.519 107.14 31.9085 107.14 34.6155C107.14 37.3225 106.556 39.7287 105.386 41.8341C104.216 43.9061 102.595 45.5102 100.523 46.6465C98.4847 47.7828 96.1621 48.3509 93.5553 48.3509C89.946 48.3509 87.0887 47.1478 84.9832 44.7416V57.7251H78.7171V21.231H84.6825V24.74C85.7185 23.4701 86.9884 22.5176 88.4923 21.8826C90.0296 21.2477 91.7173 20.9302 93.5553 20.9302ZM92.8535 42.9871C95.1595 42.9871 97.0477 42.2184 98.5181 40.6811C100.022 39.1438 100.774 37.1219 100.774 34.6155C100.774 32.109 100.022 30.0871 98.5181 28.5498C97.0477 27.0125 95.1595 26.2439 92.8535 26.2439C91.3496 26.2439 89.9962 26.5948 88.7931 27.2966C87.59 27.965 86.6375 28.9342 85.9357 30.2041C85.2339 31.474 84.883 32.9445 84.883 34.6155C84.883 36.2865 85.2339 37.7569 85.9357 39.0269C86.6375 40.2968 87.59 41.2827 88.7931 41.9845C89.9962 42.6529 91.3496 42.9871 92.8535 42.9871ZM138.248 34.7659C138.248 35.2003 138.215 35.8186 138.148 36.6207H117.144C117.511 38.5924 118.464 40.1631 120.001 41.3328C121.572 42.4691 123.51 43.0372 125.816 43.0372C128.757 43.0372 131.18 42.068 133.085 40.1297L136.443 43.9897C135.24 45.4267 133.72 46.5128 131.882 47.2481C130.043 47.9833 127.971 48.3509 125.665 48.3509C122.725 48.3509 120.135 47.7661 117.895 46.5964C115.656 45.4267 113.919 43.8059 112.682 41.7338C111.479 39.6284 110.877 37.2556 110.877 34.6155C110.877 32.0088 111.462 29.6694 112.632 27.5974C113.835 25.492 115.489 23.8544 117.595 22.6847C119.7 21.515 122.073 20.9302 124.713 20.9302C127.32 20.9302 129.642 21.515 131.681 22.6847C133.753 23.821 135.357 25.4418 136.493 27.5473C137.663 29.6193 138.248 32.0255 138.248 34.7659ZM124.713 25.9431C122.708 25.9431 121.003 26.5447 119.6 27.7478C118.23 28.9175 117.394 30.4882 117.093 32.4599H132.283C132.015 30.5216 131.196 28.9509 129.826 27.7478C128.456 26.5447 126.752 25.9431 124.713 25.9431Z" fill="black"/>
</svg>
